<svg xmlns="http://www.w3.org/2000/svg" width="432" height="360" viewBox="-6 -6 432 360" role="img" aria-labelledby="title desc">
  <title id="title">MCB 持续探索的方向</title>
  <desc id="desc">系统编程与内核；实时推理与计算机视觉；AI 安全。这些是兴趣方向，不是职业头衔或成果声明。</desc>
  <defs><clipPath id="frame"><rect x="1" y="1" width="418" height="346" rx="14"/></clipPath></defs>
  <style>text { font-family: "DejaVu Sans Mono", "Noto Sans CJK SC", "Microsoft YaHei", sans-serif; }</style>
  <g clip-path="url(#frame)">
    <rect width="420" height="348" fill="#120e1d"/>
    <path d="M0 0H420V48H0Z" fill="#1b142b"/>
    <path d="M0 48H420" stroke="#40304f"/>
    <path d="M24 17L16 25L24 33M38 17L46 25L38 33" fill="none" stroke="#b89aff" stroke-width="2"/>
    <text x="66" y="30" fill="#b1a2c7" font-size="14">~/focus / interests</text>
    <text x="24" y="94" fill="#b89aff" font-size="25">$ cat interests</text>
    <g fill="#1b142b" stroke="#40304f">
      <rect x="24" y="117" width="372" height="61" rx="9"/>
      <rect x="24" y="188" width="372" height="61" rx="9"/>
      <rect x="24" y="259" width="372" height="61" rx="9"/>
    </g>
    <g fill="none" stroke="#b89aff" stroke-width="2" stroke-linecap="round" stroke-linejoin="round">
      <rect x="42" y="134" width="26" height="26" rx="4"/><rect x="49" y="141" width="12" height="12" rx="1"/>
      <path d="M49 130V134M61 130V134M49 160V164M61 160V164M38 141H42M38 153H42M68 141H72M68 153H72"/>
      <path d="M42 213V207H49M61 207H68V213M42 225V231H49M61 231H68V225M39 219H71"/>
      <circle cx="55" cy="219" r="6"/>
      <path d="M55 274L69 279V291C69 300 55 306 55 306S41 300 41 291V279Z"/>
      <path d="M49 290L53 294L61 285"/>
    </g>
    <g fill="#f2ecff" font-size="24" font-weight="700">
      <text x="91" y="148">系统与内核</text><text x="91" y="219">实时推理与视觉</text><text x="91" y="290">AI 安全</text>
    </g>
    <g fill="#b1a2c7" font-size="12" letter-spacing="1">
      <text x="92" y="166">SYSTEMS PROGRAMMING</text><text x="92" y="237">INFERENCE / VISION</text><text x="92" y="308">SECURITY BOUNDARIES</text>
    </g>
  </g>
  <rect x="1" y="1" width="418" height="346" rx="14" fill="none" stroke="#40304f" stroke-width="2"/>
</svg>
